
<svg viewBox="-500 0 700 700" xmlns="http://www.w3.org/2000/svg">
 <path fill="#FCBCB8" d="M43.3,-52.7C54.1,-42.6,59.4,-27,64.9,-9.4C70.4,8.2,76.3,27.8,69.9,41.9C63.6,56,45.1,64.6,27.7,67C10.3,69.3,-6.1,65.5,-21,59.3C-35.9,53.2,-49.5,44.8,-61,31.8C-72.5,18.9,-82.1,1.3,-79.7,-14.4C-77.3,-30.1,-63,-44,-47.7,-53.3C-32.4,-62.7,-16.2,-67.4,0,-67.5C16.3,-67.5,32.6,-62.9,43.3,-52.7Z" transform="translate(-320 110) scale(.9 .85)" />
  <path fill="#A7E8BD" d="M49.9,-63.9C60.6,-50.5,62.4,-30.9,62.5,-13.5C62.5,3.9,60.9,19.1,55.6,35.6C50.2,52.1,41.1,69.9,27.7,73.9C14.3,77.9,-3.4,68,-20.3,60C-37.2,52,-53.2,46,-65.4,33.6C-77.6,21.1,-85.9,2.3,-79.8,-10.9C-73.7,-24,-53.1,-31.5,-37.4,-43.9C-21.7,-56.4,-10.9,-74,4.4,-79.2C19.6,-84.4,39.2,-77.2,49.9,-63.9Z" transform="translate(55 155) rotate(-70.1)" />
  <path d="M296.574 30.3168C327.293 47.5293 355.433 70.4793 371.614 100.314C388.029 130.149 392.484 166.64 388.029 202.442C383.339 238.244 369.972 273.128 345.819 298.143C321.9 323.159 287.428 337.847 251.081 350.469C214.733 362.862 176.275 372.96 142.742 364.239C109.208 355.518 80.8337 328.208 57.1492 298.373C33.2302 268.538 14.2357 236.637 5.32475 200.606C-3.35175 164.804 -2.17925 125.33 14.4702 93.6588C30.8852 62.2173 62.5427 38.3493 96.0762 22.5138C129.61 6.6783 164.785 -1.58371 198.787 0.252293C233.024 1.85879 266.089 13.1043 296.574 30.3168Z" fill="#BDC6EF" transform="translate(-500 200) scale(.4 .4)" />
  <path fill="#FEDE82" d="M46.1,-40C59,-20.5,68.3,-1.4,65.4,16.4C62.5,34.2,47.4,50.6,27.7,61.7C8,72.8,-16.4,78.7,-35.2,70.6C-54,62.5,-67.4,40.4,-68.8,19.8C-70.3,-0.8,-59.7,-20,-46.3,-39.6C-32.8,-59.2,-16.4,-79.2,0.1,-79.3C16.6,-79.3,33.1,-59.5,46.1,-40Z" transform="translate(22 425)" />

</svg>